<svg xmlns="http://www.w3.org/2000/svg" version="1.1" xmlns:xlink="http://www.w3.org/1999/xlink" width="512" height="512" x="0" y="0" viewBox="0 0 682.667 682.667" style="enable-background:new 0 0 512 512" xml:space="preserve" class=""><g><defs><clipPath id="a" clipPathUnits="userSpaceOnUse"><path d="M0 512h512V0H0Z" fill="#000000" opacity="1" data-original="#000000"></path></clipPath></defs><g clip-path="url(#a)" transform="matrix(1.33333 0 0 -1.33333 0 682.667)"><path d="M0 0v-210.197h471.713V0c0 33.381-27.061 60.442-60.442 60.442H60.442C27.061 60.442 0 33.381 0 0" style="fill-opacity:1;fill-rule:nonzero;stroke:none" transform="translate(20.144 439.98)" fill="#ff993a" data-original="#ff993a" class=""></path><path d="M0 0v-210.19h-197.99C-98.98-187.32-25.18-98.61-25.18 7.35c0 15.3-1.54 30.24-4.48 44.68C-11.9 41.5 0 22.14 0 0" style="fill-opacity:1;fill-rule:nonzero;stroke:none" transform="translate(491.86 439.977)" fill="#f97c15" data-original="#f97c15" class=""></path><path d="M0 0v-103.37h-64.04C-33.79-76.06-11.23-40.39 0 0" style="fill-opacity:1;fill-rule:nonzero;stroke:none" transform="translate(491.86 333.157)" fill="#e86300" data-original="#e86300" class=""></path><path d="M0 0v210.197c0 14.029 11.413 25.442 25.442 25.442h350.829c14.029 0 25.442-11.413 25.442-25.442V0Z" style="fill-opacity:1;fill-rule:nonzero;stroke:none" transform="translate(55.144 229.783)" fill="#e01152" data-original="#e01152" class=""></path><path d="M0 0h-490.718c-5.877 0-10.641 4.764-10.641 10.641V208.21c0 5.522 4.477 10 10 10h492c5.523 0 10-4.478 10-10V10.641C10.641 4.764 5.877 0 0 0" style="fill-opacity:1;fill-rule:nonzero;stroke:none" transform="translate(501.359 11.573)" fill="#ffaf40" data-original="#ffaf40" class=""></path><path d="M0 0c-11.583 0-20.973-9.39-20.973-20.973v-116.939c0-11.583 9.39-20.973 20.973-20.973 11.583 0 20.973 9.39 20.973 20.973v116.939C20.973-9.39 11.583 0 0 0" style="fill-opacity:1;fill-rule:nonzero;stroke:none" transform="translate(20.973 192.568)" fill="#ffc751" data-original="#ffc751" class=""></path><path d="M0 0v21.3c0 11.583-9.39 20.972-20.973 20.972-11.583 0-20.973-9.389-20.973-20.972V0c0-11.583 9.39-20.973 20.973-20.973C-9.39-20.973 0-11.583 0 0" style="fill-opacity:1;fill-rule:nonzero;stroke:none" transform="translate(41.946 120.987)" fill="#ffe059" data-original="#ffe059" class=""></path><path d="M0 0v-197.567c0-5.877-4.764-10.641-10.641-10.641h-232.472C-134.661-208.208-54.546-83.04-22.793 10H-10C-4.477 10 0 5.522 0 0" style="fill-opacity:1;fill-rule:nonzero;stroke:none" transform="translate(511.999 219.783)" fill="#ff993a" data-original="#ff993a" class=""></path><path d="M0 0v-110.964c0-5.873-4.767-10.64-10.641-10.64h-117.316C-66.612-121.604-20.526-54.152 0 0" style="fill-opacity:1;fill-rule:nonzero;stroke:none" transform="translate(511.999 133.18)" fill="#f97c15" data-original="#f97c15" class=""></path><path d="M0 0h-104.222v175.753c0 5.877 4.764 10.641 10.641 10.641h82.94C-4.764 186.394 0 181.63 0 175.753Z" style="fill-opacity:1;fill-rule:nonzero;stroke:none" transform="translate(153.696 11.573)" fill="#a74b2b" data-original="#a74b2b" class=""></path><path d="M0 0v-175.75h-104.22V0c0 5.87 4.76 10.64 10.64 10.64h82.94C-4.76 10.64 0 5.87 0 0" style="fill-opacity:1;fill-rule:nonzero;stroke:none" transform="translate(308.11 187.33)" fill="#a74b2b" data-original="#a74b2b" class=""></path><path d="M0 0v-20.78c-3.53-7.07-10.29-12.34-18.39-13.69-3.93-.66-7.71-.38-11.19.61-1.29-12.77-12.07-22.74-25.18-22.74s-23.89 9.97-25.18 22.74c-3.48-.99-7.26-1.27-11.19-.61-5.03.84-9.55 3.19-13.09 6.55V0c0 5.87 4.76 10.64 10.64 10.64h82.94C-4.76 10.64 0 5.87 0 0" style="fill-opacity:1;fill-rule:nonzero;stroke:none" transform="translate(308.11 187.33)" fill="#933a25" data-original="#933a25" class=""></path><path d="M0 0v-175.756h-84.531c37.498 33.562 61.1 82.329 61.1 136.608 0 17.26-2.384 33.955-6.842 49.789h19.632C-4.767 10.641 0 5.874 0 0" style="fill-opacity:1;fill-rule:nonzero;stroke:none" transform="translate(307.956 187.331)" fill="#933a25" data-original="#933a25" class=""></path><path d="M0 0h-104.222v175.753c0 5.877 4.764 10.641 10.641 10.641h82.94C-4.764 186.394 0 181.63 0 175.753Z" style="fill-opacity:1;fill-rule:nonzero;stroke:none" transform="translate(462.525 11.573)" fill="#a74b2b" data-original="#a74b2b" class=""></path><path d="M0 0v-175.756h-84.531c37.498 33.562 61.1 82.329 61.1 136.608 0 17.26-2.384 33.955-6.842 49.789h19.632C-4.767 10.641 0 5.874 0 0" style="fill-opacity:1;fill-rule:nonzero;stroke:none" transform="translate(153.698 187.331)" fill="#933a25" data-original="#933a25" class=""></path><path d="M0 0v-175.756h-84.531c37.498 33.562 61.1 82.329 61.1 136.608 0 17.26-2.384 33.955-6.842 49.789h19.632C-4.767 10.641 0 5.874 0 0" style="fill-opacity:1;fill-rule:nonzero;stroke:none" transform="translate(462.525 187.331)" fill="#933a25" data-original="#933a25" class=""></path><path d="M0 0v-24.868c0 5.874-4.767 10.641-10.641 10.641h-82.946c-5.873 0-10.641-4.767-10.641-10.641V0c0 5.874 4.768 10.641 10.641 10.641h82.946C-4.767 10.641 0 5.874 0 0" style="fill-opacity:1;fill-rule:nonzero;stroke:none" transform="translate(153.698 187.331)" fill="#933a25" data-original="#933a25" class=""></path><path d="M0 0v-24.868c0 5.874-4.768 10.641-10.641 10.641h-82.946c-5.874 0-10.641-4.767-10.641-10.641V0c0 5.874 4.767 10.641 10.641 10.641h82.946C-4.768 10.641 0 5.874 0 0" style="fill-opacity:1;fill-rule:nonzero;stroke:none" transform="translate(462.53 187.331)" fill="#933a25" data-original="#933a25" class=""></path><path d="M0 0v-24.868c0 5.874-4.767 10.641-10.641 10.641h-82.946c-5.873 0-10.641-4.767-10.641-10.641V0c0 5.874 4.768 10.641 10.641 10.641h82.946C-4.767 10.641 0 5.874 0 0" style="fill-opacity:1;fill-rule:nonzero;stroke:none" transform="translate(308.114 187.331)" fill="#933a25" data-original="#933a25" class=""></path><path d="M0 0v-210.19h-201.27C-108.04-182.26-40.1-95.8-40.1 6.53c0 6.37-.26 12.68-.79 18.92h15.44C-11.42 25.45 0 14.03 0 0" style="fill-opacity:1;fill-rule:nonzero;stroke:none" transform="translate(456.86 439.977)" fill="#c40047" data-original="#c40047" class=""></path><path d="M0 0v-81.04h-67.02C-35.54-63.64-11.32-34.73 0 0" style="fill-opacity:1;fill-rule:nonzero;stroke:none" transform="translate(456.86 310.827)" fill="#a80045" data-original="#a80045" class=""></path><path d="M0 0c-33.385 0-60.45-27.064-60.45-60.45v-105.256c0-9.665 7.835-17.5 17.5-17.5s17.5 7.835 17.5 17.5V-60.45C-25.45-46.395-14.056-35 0-35h52.089c9.665 0 17.5 7.835 17.5 17.5S61.754 0 52.089 0z" style="fill-opacity:1;fill-rule:nonzero;stroke:none" transform="translate(80.59 500.427)" fill="#ffaf40" data-original="#ffaf40" class=""></path><path d="M0 0v42.557c0 9.665-7.835 17.5-17.5 17.5S-35 52.222-35 42.557V0c0-9.665 7.835-17.5 17.5-17.5S0-9.665 0 0" style="fill-opacity:1;fill-rule:nonzero;stroke:none" transform="translate(55.14 370.217)" fill="#ffc751" data-original="#ffc751" class=""></path><path d="M0 0h-117.214c-9.665 0-17.5-7.835-17.5-17.5s7.835-17.5 17.5-17.5H0c9.665 0 17.5 7.835 17.5 17.5S9.665 0 0 0" style="fill-opacity:1;fill-rule:nonzero;stroke:none" transform="translate(387.377 500.427)" fill="#ffaf40" data-original="#ffaf40" class=""></path><path d="M0 0h-117.214c-9.665 0-17.5-7.835-17.5-17.5s7.835-17.5 17.5-17.5H0c9.665 0 17.5 7.835 17.5 17.5S9.665 0 0 0" style="fill-opacity:1;fill-rule:nonzero;stroke:none" transform="translate(229.364 465.422)" fill="#fe255f" data-original="#fe255f"></path><path d="M0 0h-26.611c-9.665 0-17.5-7.835-17.5-17.5s7.835-17.5 17.5-17.5H0c9.665 0 17.5 7.835 17.5 17.5S9.665 0 0 0" style="fill-opacity:1;fill-rule:nonzero;stroke:none" transform="translate(169.928 465.422)" fill="#fc709b" data-original="#fc709b"></path><path d="M0 0h-45.214c-9.665 0-17.5-7.835-17.5-17.5s7.835-17.5 17.5-17.5H0c9.665 0 17.5 7.835 17.5 17.5S9.665 0 0 0" style="fill-opacity:1;fill-rule:nonzero;stroke:none" transform="translate(340.802 500.427)" fill="#ffc751" data-original="#ffc751" class=""></path><path d="M0 0h-52.565c-6.585 0-11.922 5.338-11.922 11.922 0 6.584 5.337 11.922 11.922 11.922H0c6.584 0 11.922-5.338 11.922-11.922C11.922 5.338 6.584 0 0 0" style="fill-opacity:1;fill-rule:nonzero;stroke:none" transform="translate(145.381 229.787)" fill="#ffc751" data-original="#ffc751" class=""></path><path d="M0 0h-16.594c-6.584 0-11.921-5.337-11.921-11.922 0-6.584 5.337-11.922 11.921-11.922H0c6.584 0 11.922 5.338 11.922 11.922C11.922-5.337 6.584 0 0 0" style="fill-opacity:1;fill-rule:nonzero;stroke:none" transform="translate(123.997 253.63)" fill="#ffe059" data-original="#ffe059" class=""></path><path d="M0 0h-52.565c-6.585 0-11.922 5.338-11.922 11.922 0 6.584 5.337 11.922 11.922 11.922H0c6.584 0 11.922-5.338 11.922-11.922C11.922 5.338 6.584 0 0 0" style="fill-opacity:1;fill-rule:nonzero;stroke:none" transform="translate(145.381 253.63)" fill="#ff993a" data-original="#ff993a" class=""></path><path d="M0 0h-16.594c-6.584 0-11.921-5.337-11.921-11.922 0-6.584 5.337-11.922 11.921-11.922H0c6.584 0 11.922 5.338 11.922 11.922C11.922-5.337 6.584 0 0 0" style="fill-opacity:1;fill-rule:nonzero;stroke:none" transform="translate(123.997 277.474)" fill="#ffaf40" data-original="#ffaf40" class=""></path><path d="M0 0h-52.565c-6.585 0-11.922 5.337-11.922 11.922 0 6.584 5.337 11.922 11.922 11.922H0c6.584 0 11.922-5.338 11.922-11.922C11.922 5.337 6.584 0 0 0" style="fill-opacity:1;fill-rule:nonzero;stroke:none" transform="translate(145.381 277.474)" fill="#ffc751" data-original="#ffc751" class=""></path><path d="M0 0h-16.594c-6.584 0-11.921-5.338-11.921-11.922 0-6.584 5.337-11.922 11.921-11.922H0c6.584 0 11.922 5.338 11.922 11.922C11.922-5.338 6.584 0 0 0" style="fill-opacity:1;fill-rule:nonzero;stroke:none" transform="translate(123.997 301.318)" fill="#ffe059" data-original="#ffe059" class=""></path><path d="M0 0h-52.566c-6.584 0-11.921 5.338-11.921 11.922 0 6.584 5.337 11.922 11.921 11.922H0c6.584 0 11.922-5.338 11.922-11.922C11.922 5.338 6.584 0 0 0" style="fill-opacity:1;fill-rule:nonzero;stroke:none" transform="translate(200.406 229.787)" fill="#ff993a" data-original="#ff993a" class=""></path><path d="M0 0h-16.594c-6.584 0-11.922-5.337-11.922-11.922 0-6.584 5.338-11.922 11.922-11.922H0c6.584 0 11.921 5.338 11.921 11.922C11.921-5.337 6.584 0 0 0" style="fill-opacity:1;fill-rule:nonzero;stroke:none" transform="translate(179.022 253.63)" fill="#ffaf40" data-original="#ffaf40" class=""></path><path d="M0 0h-52.566c-6.584 0-11.921 5.338-11.921 11.922 0 6.584 5.337 11.922 11.921 11.922H0c6.584 0 11.922-5.338 11.922-11.922C11.922 5.338 6.584 0 0 0" style="fill-opacity:1;fill-rule:nonzero;stroke:none" transform="translate(200.406 253.63)" fill="#ffc751" data-original="#ffc751" class=""></path><path d="M0 0h-16.594c-6.584 0-11.922-5.337-11.922-11.922 0-6.584 5.338-11.922 11.922-11.922H0c6.584 0 11.921 5.338 11.921 11.922C11.921-5.337 6.584 0 0 0" style="fill-opacity:1;fill-rule:nonzero;stroke:none" transform="translate(179.022 277.474)" fill="#ffe059" data-original="#ffe059" class=""></path><path d="M0 0h-52.566c-6.584 0-11.921 5.337-11.921 11.922 0 6.584 5.337 11.922 11.921 11.922H0c6.584 0 11.922-5.338 11.922-11.922C11.922 5.337 6.584 0 0 0" style="fill-opacity:1;fill-rule:nonzero;stroke:none" transform="translate(200.406 277.474)" fill="#ff993a" data-original="#ff993a" class=""></path><path d="M0 0h-16.594c-6.584 0-11.922-5.338-11.922-11.922 0-6.584 5.338-11.922 11.922-11.922H0c6.584 0 11.921 5.338 11.921 11.922C11.921-5.338 6.584 0 0 0" style="fill-opacity:1;fill-rule:nonzero;stroke:none" transform="translate(179.022 301.318)" fill="#ffaf40" data-original="#ffaf40" class=""></path><path d="M0 0h-52.566c-6.584 0-11.921 5.337-11.921 11.921 0 6.585 5.337 11.922 11.921 11.922H0c6.584 0 11.922-5.337 11.922-11.922C11.922 5.337 6.584 0 0 0" style="fill-opacity:1;fill-rule:nonzero;stroke:none" transform="translate(200.406 301.318)" fill="#ffc751" data-original="#ffc751" class=""></path><path d="M0 0h-16.594c-6.584 0-11.922-5.337-11.922-11.922 0-6.584 5.338-11.921 11.922-11.921H0c6.584 0 11.921 5.337 11.921 11.921C11.921-5.337 6.584 0 0 0" style="fill-opacity:1;fill-rule:nonzero;stroke:none" transform="translate(179.022 325.161)" fill="#ffe059" data-original="#ffe059" class=""></path><path d="M0 0h-52.566c-6.584 0-11.921 5.338-11.921 11.922 0 6.584 5.337 11.922 11.921 11.922H0c6.584 0 11.922-5.338 11.922-11.922C11.922 5.338 6.584 0 0 0" style="fill-opacity:1;fill-rule:nonzero;stroke:none" transform="translate(254.77 229.787)" fill="#ffc751" data-original="#ffc751" class=""></path><path d="M0 0h-16.593c-6.584 0-11.922-5.337-11.922-11.922 0-6.584 5.338-11.922 11.922-11.922H0c6.584 0 11.922 5.338 11.922 11.922C11.922-5.337 6.584 0 0 0" style="fill-opacity:1;fill-rule:nonzero;stroke:none" transform="translate(233.386 253.63)" fill="#ffe059" data-original="#ffe059" class=""></path><path d="M0 0h-52.566c-6.584 0-11.921 5.338-11.921 11.922 0 6.584 5.337 11.922 11.921 11.922H0c6.584 0 11.922-5.338 11.922-11.922C11.922 5.338 6.584 0 0 0" style="fill-opacity:1;fill-rule:nonzero;stroke:none" transform="translate(254.77 253.63)" fill="#ff993a" data-original="#ff993a" class=""></path><path d="M0 0h-16.593c-6.584 0-11.922-5.337-11.922-11.922 0-6.584 5.338-11.922 11.922-11.922H0c6.584 0 11.922 5.338 11.922 11.922C11.922-5.337 6.584 0 0 0" style="fill-opacity:1;fill-rule:nonzero;stroke:none" transform="translate(233.386 277.474)" fill="#ffaf40" data-original="#ffaf40" class=""></path><path d="M0 0h-52.566c-6.584 0-11.921 5.337-11.921 11.922 0 6.584 5.337 11.922 11.921 11.922H0c6.584 0 11.922-5.338 11.922-11.922C11.922 5.337 6.584 0 0 0" style="fill-opacity:1;fill-rule:nonzero;stroke:none" transform="translate(254.77 277.474)" fill="#ffc751" data-original="#ffc751" class=""></path><path d="M0 0h-16.593c-6.584 0-11.922-5.338-11.922-11.922 0-6.584 5.338-11.922 11.922-11.922H0c6.584 0 11.922 5.338 11.922 11.922C11.922-5.338 6.584 0 0 0" style="fill-opacity:1;fill-rule:nonzero;stroke:none" transform="translate(233.386 301.318)" fill="#ffe059" data-original="#ffe059" class=""></path><path d="M0 0h-52.566c-6.584 0-11.921 5.337-11.921 11.921 0 6.585 5.337 11.922 11.921 11.922H0c6.584 0 11.922-5.337 11.922-11.922C11.922 5.337 6.584 0 0 0" style="fill-opacity:1;fill-rule:nonzero;stroke:none" transform="translate(254.77 301.318)" fill="#ff993a" data-original="#ff993a" class=""></path><path d="M0 0h-16.593c-6.584 0-11.922-5.337-11.922-11.922 0-6.584 5.338-11.921 11.922-11.921H0c6.584 0 11.922 5.337 11.922 11.921C11.922-5.337 6.584 0 0 0" style="fill-opacity:1;fill-rule:nonzero;stroke:none" transform="translate(233.386 325.161)" fill="#ffaf40" data-original="#ffaf40" class=""></path><path d="M0 0h-52.566c-6.584 0-11.921 5.338-11.921 11.922 0 6.584 5.337 11.922 11.921 11.922H0c6.584 0 11.922-5.338 11.922-11.922C11.922 5.338 6.584 0 0 0" style="fill-opacity:1;fill-rule:nonzero;stroke:none" transform="translate(254.77 325.161)" fill="#ffc751" data-original="#ffc751" class=""></path><path d="M0 0h-16.593c-6.584 0-11.922-5.337-11.922-11.922 0-6.584 5.338-11.922 11.922-11.922H0c6.584 0 11.922 5.338 11.922 11.922C11.922-5.337 6.584 0 0 0" style="fill-opacity:1;fill-rule:nonzero;stroke:none" transform="translate(233.386 349.005)" fill="#ffe059" data-original="#ffe059" class=""></path><path d="M0 0h-52.566c-6.584 0-11.921 5.337-11.921 11.922 0 6.584 5.337 11.922 11.921 11.922H0c6.584 0 11.922-5.338 11.922-11.922C11.922 5.337 6.584 0 0 0" style="fill-opacity:1;fill-rule:nonzero;stroke:none" transform="translate(254.77 349.005)" fill="#ff993a" data-original="#ff993a" class=""></path><path d="M0 0h-16.593c-6.584 0-11.922-5.338-11.922-11.922 0-6.584 5.338-11.922 11.922-11.922H0c6.584 0 11.922 5.338 11.922 11.922C11.922-5.338 6.584 0 0 0" style="fill-opacity:1;fill-rule:nonzero;stroke:none" transform="translate(233.386 372.849)" fill="#ffaf40" data-original="#ffaf40" class=""></path><path d="M0 0h-52.566c-6.584 0-11.922 5.338-11.922 11.922 0 6.584 5.338 11.922 11.922 11.922H0c6.584 0 11.921-5.338 11.921-11.922C11.921 5.338 6.584 0 0 0" style="fill-opacity:1;fill-rule:nonzero;stroke:none" transform="translate(309.795 229.787)" fill="#ff993a" data-original="#ff993a" class=""></path><path d="M0 0h-16.593c-6.585 0-11.922-5.337-11.922-11.922 0-6.584 5.337-11.922 11.922-11.922H0c6.584 0 11.922 5.338 11.922 11.922C11.922-5.337 6.584 0 0 0" style="fill-opacity:1;fill-rule:nonzero;stroke:none" transform="translate(288.41 253.63)" fill="#ffaf40" data-original="#ffaf40" class=""></path><path d="M0 0h-52.566c-6.584 0-11.922 5.338-11.922 11.922 0 6.584 5.338 11.922 11.922 11.922H0c6.584 0 11.921-5.338 11.921-11.922C11.921 5.338 6.584 0 0 0" style="fill-opacity:1;fill-rule:nonzero;stroke:none" transform="translate(309.795 253.63)" fill="#ffc751" data-original="#ffc751" class=""></path><path d="M0 0h-16.593c-6.585 0-11.922-5.337-11.922-11.922 0-6.584 5.337-11.922 11.922-11.922H0c6.584 0 11.922 5.338 11.922 11.922C11.922-5.337 6.584 0 0 0" style="fill-opacity:1;fill-rule:nonzero;stroke:none" transform="translate(288.41 277.474)" fill="#ffe059" data-original="#ffe059" class=""></path><path d="M0 0h-52.566c-6.584 0-11.922 5.337-11.922 11.922 0 6.584 5.338 11.922 11.922 11.922H0c6.584 0 11.921-5.338 11.921-11.922C11.921 5.337 6.584 0 0 0" style="fill-opacity:1;fill-rule:nonzero;stroke:none" transform="translate(309.795 277.474)" fill="#ff993a" data-original="#ff993a" class=""></path><path d="M0 0h-16.593c-6.585 0-11.922-5.338-11.922-11.922 0-6.584 5.337-11.922 11.922-11.922H0c6.584 0 11.922 5.338 11.922 11.922C11.922-5.338 6.584 0 0 0" style="fill-opacity:1;fill-rule:nonzero;stroke:none" transform="translate(288.41 301.318)" fill="#ffaf40" data-original="#ffaf40" class=""></path><path d="M0 0h-52.566c-6.584 0-11.922 5.337-11.922 11.921 0 6.585 5.338 11.922 11.922 11.922H0c6.584 0 11.921-5.337 11.921-11.922C11.921 5.337 6.584 0 0 0" style="fill-opacity:1;fill-rule:nonzero;stroke:none" transform="translate(309.795 301.318)" fill="#ffc751" data-original="#ffc751" class=""></path><path d="M0 0h-16.593c-6.585 0-11.922-5.337-11.922-11.922 0-6.584 5.337-11.921 11.922-11.921H0c6.584 0 11.922 5.337 11.922 11.921C11.922-5.337 6.584 0 0 0" style="fill-opacity:1;fill-rule:nonzero;stroke:none" transform="translate(288.41 325.161)" fill="#ffe059" data-original="#ffe059" class=""></path><path d="M0 0h-52.566c-6.584 0-11.922 5.338-11.922 11.922 0 6.584 5.338 11.922 11.922 11.922H0c6.584 0 11.921-5.338 11.921-11.922C11.921 5.338 6.584 0 0 0" style="fill-opacity:1;fill-rule:nonzero;stroke:none" transform="translate(309.795 325.161)" fill="#ff993a" data-original="#ff993a" class=""></path><path d="M0 0h-16.593c-6.585 0-11.922-5.337-11.922-11.922 0-6.584 5.337-11.922 11.922-11.922H0c6.584 0 11.922 5.338 11.922 11.922C11.922-5.337 6.584 0 0 0" style="fill-opacity:1;fill-rule:nonzero;stroke:none" transform="translate(288.41 349.005)" fill="#ffaf40" data-original="#ffaf40" class=""></path><path d="M0 0h-52.566c-6.584 0-11.922 5.338-11.922 11.922 0 6.584 5.338 11.922 11.922 11.922H0c6.584 0 11.921-5.338 11.921-11.922C11.921 5.338 6.584 0 0 0" style="fill-opacity:1;fill-rule:nonzero;stroke:none" transform="translate(364.16 229.787)" fill="#ffc751" data-original="#ffc751" class=""></path><path d="M0 0h-16.593c-6.585 0-11.922-5.337-11.922-11.922 0-6.584 5.337-11.922 11.922-11.922H0c6.584 0 11.922 5.338 11.922 11.922C11.922-5.337 6.584 0 0 0" style="fill-opacity:1;fill-rule:nonzero;stroke:none" transform="translate(342.775 253.63)" fill="#ffe059" data-original="#ffe059" class=""></path><path d="M0 0h-52.566c-6.584 0-11.922 5.338-11.922 11.922 0 6.584 5.338 11.922 11.922 11.922H0c6.584 0 11.921-5.338 11.921-11.922C11.921 5.338 6.584 0 0 0" style="fill-opacity:1;fill-rule:nonzero;stroke:none" transform="translate(364.16 253.63)" fill="#ff993a" data-original="#ff993a" class=""></path><path d="M0 0h-16.593c-6.585 0-11.922-5.337-11.922-11.922 0-6.584 5.337-11.922 11.922-11.922H0c6.584 0 11.922 5.338 11.922 11.922C11.922-5.337 6.584 0 0 0" style="fill-opacity:1;fill-rule:nonzero;stroke:none" transform="translate(342.775 277.474)" fill="#ffaf40" data-original="#ffaf40" class=""></path><path d="M0 0h-52.566c-6.584 0-11.922 5.337-11.922 11.922 0 6.584 5.338 11.922 11.922 11.922H0c6.584 0 11.921-5.338 11.921-11.922C11.921 5.337 6.584 0 0 0" style="fill-opacity:1;fill-rule:nonzero;stroke:none" transform="translate(364.16 277.474)" fill="#ffc751" data-original="#ffc751" class=""></path><path d="M0 0h-16.593c-6.585 0-11.922-5.338-11.922-11.922 0-6.584 5.337-11.922 11.922-11.922H0c6.584 0 11.922 5.338 11.922 11.922C11.922-5.338 6.584 0 0 0" style="fill-opacity:1;fill-rule:nonzero;stroke:none" transform="translate(342.775 301.318)" fill="#ffe059" data-original="#ffe059" class=""></path><path d="M0 0h-52.566c-6.584 0-11.922 5.337-11.922 11.921 0 6.585 5.338 11.922 11.922 11.922H0c6.584 0 11.921-5.337 11.921-11.922C11.921 5.337 6.584 0 0 0" style="fill-opacity:1;fill-rule:nonzero;stroke:none" transform="translate(364.16 301.318)" fill="#ff993a" data-original="#ff993a" class=""></path><path d="M0 0h-16.593c-6.585 0-11.922-5.337-11.922-11.922 0-6.584 5.337-11.921 11.922-11.921H0c6.584 0 11.922 5.337 11.922 11.921C11.922-5.337 6.584 0 0 0" style="fill-opacity:1;fill-rule:nonzero;stroke:none" transform="translate(342.775 325.161)" fill="#ffaf40" data-original="#ffaf40" class=""></path><path d="M0 0h-52.565c-6.585 0-11.922 5.338-11.922 11.922 0 6.584 5.337 11.922 11.922 11.922H0c6.584 0 11.922-5.338 11.922-11.922C11.922 5.338 6.584 0 0 0" style="fill-opacity:1;fill-rule:nonzero;stroke:none" transform="translate(419.184 229.787)" fill="#ff993a" data-original="#ff993a" class=""></path><path d="M0 0h-16.593c-6.585 0-11.922-5.337-11.922-11.922 0-6.584 5.337-11.922 11.922-11.922H0c6.584 0 11.922 5.338 11.922 11.922C11.922-5.337 6.584 0 0 0" style="fill-opacity:1;fill-rule:nonzero;stroke:none" transform="translate(397.8 253.63)" fill="#ffaf40" data-original="#ffaf40" class=""></path><path d="M0 0h-52.565c-6.585 0-11.922 5.338-11.922 11.922 0 6.584 5.337 11.922 11.922 11.922H0c6.584 0 11.922-5.338 11.922-11.922C11.922 5.338 6.584 0 0 0" style="fill-opacity:1;fill-rule:nonzero;stroke:none" transform="translate(419.184 253.63)" fill="#ffc751" data-original="#ffc751" class=""></path><path d="M0 0h-16.593c-6.585 0-11.922-5.337-11.922-11.922 0-6.584 5.337-11.922 11.922-11.922H0c6.584 0 11.922 5.338 11.922 11.922C11.922-5.337 6.584 0 0 0" style="fill-opacity:1;fill-rule:nonzero;stroke:none" transform="translate(397.8 277.474)" fill="#ffe059" data-original="#ffe059" class=""></path><path d="M0 0c2.124 1.399 2.124 4.507 0 5.906a100.472 100.472 0 0 0-15.518 12.609 100.135 100.135 0 0 0-12.706 15.4c-1.41 2.108-4.541 2.108-5.951 0a100.128 100.128 0 0 0-12.705-15.4A100.52 100.52 0 0 0-62.398 5.906c-2.124-1.399-2.124-4.507 0-5.906A100.52 100.52 0 0 0-46.88-12.609a100.033 100.033 0 0 0 12.705-15.4c1.41-2.108 4.541-2.108 5.951 0a100.04 100.04 0 0 0 12.706 15.4A100.472 100.472 0 0 0 0 0" style="fill-opacity:1;fill-rule:nonzero;stroke:none" transform="translate(370.113 387.676)" fill="#ffe059" data-original="#ffe059" class=""></path><path d="M0 0a100.622 100.622 0 0 1-15.519-12.609A100.111 100.111 0 0 1-28.225-28.01c-1.411-2.105-4.538-2.105-5.949 0a100.111 100.111 0 0 1-14.62 17.246 31.211 31.211 0 0 1 2.588-.107c16.588 0 30.112 13.074 30.669 29.402l.018-.018A100.505 100.505 0 0 1 0 5.904C2.121 4.503 2.121 1.4 0 0" style="fill-opacity:1;fill-rule:nonzero;stroke:none" transform="translate(370.115 387.678)" fill="#ffc751" data-original="#ffc751" class=""></path><path d="M0 0a2.334 2.334 0 0 1 0 3.901 66.444 66.444 0 0 0-10.251 8.329 66.126 66.126 0 0 0-8.394 10.174c-.931 1.393-3 1.393-3.931 0A66.126 66.126 0 0 0-30.97 12.23a66.492 66.492 0 0 0-10.251-8.329 2.334 2.334 0 0 1 0-3.901A66.44 66.44 0 0 0-30.97-8.33a66.07 66.07 0 0 0 8.394-10.173c.931-1.393 3-1.393 3.931 0A66.07 66.07 0 0 0-10.251-8.33 66.393 66.393 0 0 0 0 0" style="fill-opacity:1;fill-rule:nonzero;stroke:none" transform="translate(409.433 352.722)" fill="#ffe059" data-original="#ffe059" class=""></path><path d="M0 0a66.484 66.484 0 0 1-10.252-8.33 66.163 66.163 0 0 1-8.394-10.174c-.932-1.39-2.998-1.39-3.93 0a66.163 66.163 0 0 1-9.658 11.393c.564-.047 1.134-.07 1.71-.07 10.958 0 19.892 8.636 20.26 19.423l.012-.012A66.484 66.484 0 0 1 0 3.9 2.335 2.335 0 0 0 0 0" style="fill-opacity:1;fill-rule:nonzero;stroke:none" transform="translate(409.434 352.723)" fill="#ffc751" data-original="#ffc751" class=""></path><path d="M0 0a2.282 2.282 0 0 1 0 3.814 64.894 64.894 0 0 0-10.022 8.143 64.696 64.696 0 0 0-8.206 9.946c-.91 1.361-2.932 1.361-3.843 0a64.63 64.63 0 0 0-8.205-9.946 64.942 64.942 0 0 0-10.022-8.143 2.282 2.282 0 0 1 0-3.814 64.942 64.942 0 0 0 10.022-8.143 64.583 64.583 0 0 0 8.205-9.946c.911-1.361 2.933-1.361 3.843 0a64.648 64.648 0 0 0 8.206 9.946A64.894 64.894 0 0 0 0 0" style="fill-opacity:1;fill-rule:nonzero;stroke:none" transform="translate(142.184 349.166)" fill="#ffe059" data-original="#ffe059" class=""></path><path d="M0 0a64.93 64.93 0 0 1-10.022-8.143 64.682 64.682 0 0 1-8.207-9.946c-.911-1.36-2.93-1.36-3.841 0a64.675 64.675 0 0 1-9.442 11.138 20.078 20.078 0 0 1 1.671-.069c10.713 0 19.447 8.443 19.807 18.988l.012-.011A64.938 64.938 0 0 1 0 3.813 2.282 2.282 0 0 0 0 0" style="fill-opacity:1;fill-rule:nonzero;stroke:none" transform="translate(142.185 349.168)" fill="#ffc751" data-original="#ffc751" class=""></path><path d="M0 0v6.384c0 5.523-4.477 10-10 10h-47.246c-5.523 0-10-4.477-10-10V0c-13.803-.811-24.633-12.679-23.753-26.875.721-11.624 9.521-21.415 21.007-23.341a25.359 25.359 0 0 1 11.188.614c1.289-12.77 12.071-22.737 25.181-22.737 13.11 0 23.892 9.967 25.181 22.737a25.344 25.344 0 0 1 11.188-.613c11.486 1.925 20.286 11.716 21.007 23.34C24.634-12.679 13.803-.811 0 0" style="fill-opacity:1;fill-rule:nonzero;stroke:none" transform="translate(286.972 217.586)" fill="#fff7c7" data-original="#fff7c7"></path><path d="M0 0v6.385c0 5.523-4.477 10-10 10h-8.571C-28.9-12.855-53.458-35.373-83.936-42.84a25.181 25.181 0 0 1 18.197-7.736c2.405 0 4.724.351 6.927.979 1.298-12.769 12.077-22.74 25.187-22.74 13.109 0 23.889 9.971 25.176 22.74a25.292 25.292 0 0 1 6.938-.979c13.982 0 25.315 11.332 25.315 25.315C23.804-11.79 13.27-.777 0 0" style="fill-opacity:1;fill-rule:nonzero;stroke:none" transform="translate(286.976 217.586)" fill="#fff370" data-original="#fff370"></path><path d="M0 0v-11.164c0-6.815 5.525-12.34 12.34-12.34 6.816 0 12.341 5.525 12.341 12.34V0z" style="fill-opacity:1;fill-rule:nonzero;stroke:none" transform="translate(241.009 233.97)" fill="#713327" data-original="#713327"></path><path d="M0 0c0-13.982-11.333-25.315-25.314-25.315-2.405 0-4.736.351-6.938.979-1.288-12.769-12.067-22.74-25.177-22.74-8.832 0-16.611 4.523-21.133 11.386 31.189 4.405 55.95 28.805 60.888 59.823C-7.427 20.898 0 11.311 0 0" style="fill-opacity:1;fill-rule:nonzero;stroke:none" transform="translate(310.78 192.325)" fill="#ffe059" data-original="#ffe059" class=""></path></g></g></svg>