<svg xmlns="http://www.w3.org/2000/svg" version="1.1" xmlns:xlink="http://www.w3.org/1999/xlink" width="512" height="512" x="0" y="0" viewBox="0 0 512 512" style="enable-background:new 0 0 512 512" xml:space="preserve" class=""><g><path fill="#ffaf40" d="M501.359 451.65H10.641C4.764 451.65 0 446.886 0 441.009v-230h512v230c0 5.877-4.764 10.641-10.641 10.641z" opacity="1" data-original="#ffaf40"></path><path fill="#ffc751" d="M20.973 270.654C9.39 270.654 0 280.044 0 291.627v116.939c0 11.583 9.39 20.973 20.973 20.973 11.583 0 20.973-9.39 20.973-20.973V291.627c0-11.583-9.39-20.973-20.973-20.973z" opacity="1" data-original="#ffc751" class=""></path><path fill="#ffe059" d="M41.946 342.236v-21.3c0-11.583-9.39-20.973-20.973-20.973C9.39 299.963 0 309.353 0 320.936v21.3c0 11.583 9.39 20.973 20.973 20.973 11.583 0 20.973-9.39 20.973-20.973z" opacity="1" data-original="#ffe059" class=""></path><path fill="#ff993a" d="M0 211.008h512v42.014H0z" opacity="1" data-original="#ff993a"></path><path fill="#ff993a" d="M511.999 233.44v207.567c0 5.874-4.767 10.641-10.641 10.641H268.886c108.452 0 188.566-125.168 220.32-218.208z" opacity="1" data-original="#ff993a"></path><path fill="#f97c15" d="M511.999 330.044v110.964c0 5.874-4.767 10.641-10.641 10.641H384.042c61.345-.001 107.431-67.454 127.957-121.605z" opacity="1" data-original="#f97c15"></path><path fill="#ffc751" d="M434.336 60.35H77.664S0 61.571 0 171.094v62.346h512v-62.346C512 61.572 434.336 60.35 434.336 60.35z" opacity="1" data-original="#ffc751" class=""></path><path fill="#b55434" d="M384.861 60.35H127.139s-77.664 1.221-77.664 110.744v12.926c0 5.877 4.764 10.641 10.641 10.641h391.769c5.877 0 10.641-4.764 10.641-10.641v-12.926C462.525 61.572 384.861 60.35 384.861 60.35z" opacity="1" data-original="#b55434" class=""></path><path fill="#a1412b" d="M462.53 171.09v12.929c0 5.874-4.767 10.641-10.641 10.641H314.153c47.458-12.322 82.499-55.439 82.499-106.76 0-9.119-1.107-17.972-3.192-26.443 20.217 4.032 69.07 22.771 69.07 109.633z" opacity="1" data-original="#a1412b" class=""></path><g fill="#a1412b"><path d="M440.95 91.708H71.05c5.299-7.119 11.141-12.62 16.994-16.866h335.912c5.853 4.246 11.695 9.748 16.994 16.866zM458.539 131.824H53.461c1.383-6.14 3.075-11.737 5.022-16.866h395.033c1.948 5.13 3.64 10.727 5.023 16.866zM462.53 171.09v.851H49.47v-.851c0-5.618.202-10.949.596-16.004h411.867c.394 5.054.597 10.385.597 16.004z" fill="#a1412b" opacity="1" data-original="#a1412b" class=""></path></g><path fill="#b55434" d="M153.696 451.65H49.475V275.896c0-5.877 4.764-10.641 10.641-10.641h82.94c5.877 0 10.641 4.764 10.641 10.641V451.65zM308.109 275.892v175.756H203.891V275.892c0-5.874 4.756-10.641 10.641-10.641h82.935c5.885 0 10.642 4.767 10.642 10.641z" opacity="1" data-original="#b55434" class=""></path><path fill="#a1412b" d="M308.109 275.892v31.827c-4.139 8.3-12.727 14.003-22.644 14.003-2.405 0-4.735-.34-6.938-.968-1.288 12.769-12.067 22.74-25.176 22.74s-23.889-9.971-25.187-22.74a25.209 25.209 0 0 1-6.927.968 25.115 25.115 0 0 1-17.345-6.895v-38.935c0-5.874 4.756-10.641 10.641-10.641h82.935c5.884 0 10.641 4.767 10.641 10.641z" opacity="1" data-original="#a1412b" class=""></path><path fill="#a1412b" d="M307.956 275.892v175.756h-84.531c37.499-33.561 61.1-82.329 61.1-136.608 0-17.26-2.384-33.955-6.842-49.789h19.632c5.873 0 10.641 4.767 10.641 10.641z" opacity="1" data-original="#a1412b" class=""></path><path fill="#b55434" d="M462.525 451.65H358.304V275.896c0-5.877 4.764-10.641 10.641-10.641h82.94c5.877 0 10.641 4.764 10.641 10.641V451.65z" opacity="1" data-original="#b55434" class=""></path><path fill="#fff7c7" d="M286.972 253.386v-33.272c13.276-.78 23.803-11.79 23.803-25.262 0-13.979-11.332-25.31-25.31-25.31-2.406 0-4.73.343-6.935.97-1.289-12.77-12.071-22.737-25.181-22.737s-23.892 9.967-25.181 22.737a25.31 25.31 0 0 0-6.935-.97c-13.978 0-25.31 11.332-25.31 25.31 0 13.472 10.527 24.481 23.803 25.262v33.272c-13.276.78-23.803 11.79-23.803 25.262 0 13.978 11.332 25.31 25.31 25.31 2.406 0 4.73-.343 6.935-.97 1.289 12.77 12.071 22.737 25.181 22.737s23.892-9.968 25.181-22.737a25.31 25.31 0 0 0 6.935.97c13.978 0 25.31-11.332 25.31-25.31 0-13.472-10.526-24.482-23.803-25.262z" opacity="1" data-original="#fff7c7" class=""></path><path fill="#fff370" d="M310.779 278.648c0 13.982-11.333 25.315-25.315 25.315-2.405 0-4.735-.351-6.938-.979-1.288 12.769-12.067 22.74-25.176 22.74s-23.889-9.97-25.187-22.74a25.213 25.213 0 0 1-6.927.979 25.177 25.177 0 0 1-18.196-7.736c40.563-9.939 70.645-46.533 70.645-90.16 0-22.069-7.704-42.351-20.579-58.28.085-.011.16-.011.245-.011 13.11 0 23.889 9.971 25.176 22.74a25.288 25.288 0 0 1 6.938-.968c13.982 0 25.315 11.333 25.315 25.304 0 13.471-10.535 24.485-23.804 25.262v33.274c13.269.775 23.803 11.789 23.803 25.26z" opacity="1" data-original="#fff370"></path><path fill="#7f392c" d="M253.349 261.174c-6.816 0-12.341-5.525-12.341-12.341v-24.167c0-6.816 5.525-12.341 12.341-12.341 6.816 0 12.341 5.525 12.341 12.341v24.167c0 6.816-5.525 12.341-12.341 12.341z" opacity="1" data-original="#7f392c"></path><path fill="#ffe059" d="M310.779 278.648c0 13.982-11.333 25.315-25.315 25.315-2.405 0-4.735-.351-6.938-.979-1.288 12.769-12.067 22.74-25.176 22.74-8.832 0-16.61-4.522-21.133-11.386 31.189-4.405 55.95-28.805 60.887-59.823 10.248 3.234 17.675 12.822 17.675 24.133z" opacity="1" data-original="#ffe059" class=""></path><g fill="#a1412b"><path d="M153.698 275.892v175.756H69.167c37.499-33.561 61.1-82.329 61.1-136.608 0-17.26-2.384-33.955-6.842-49.789h19.632c5.874 0 10.641 4.767 10.641 10.641zM462.525 275.892v175.756h-84.531c37.499-33.561 61.1-82.329 61.1-136.608 0-17.26-2.384-33.955-6.842-49.789h19.632c5.874 0 10.641 4.767 10.641 10.641z" fill="#a1412b" opacity="1" data-original="#a1412b" class=""></path><path d="M153.698 275.892v24.868c0-5.874-4.767-10.641-10.641-10.641H60.111c-5.874 0-10.641 4.767-10.641 10.641v-24.868c0-5.874 4.767-10.641 10.641-10.641h82.946c5.874 0 10.641 4.767 10.641 10.641zM462.53 275.892v24.868c0-5.874-4.767-10.641-10.641-10.641h-82.946c-5.874 0-10.641 4.767-10.641 10.641v-24.868c0-5.874 4.767-10.641 10.641-10.641h82.946c5.873 0 10.641 4.767 10.641 10.641z" fill="#a1412b" opacity="1" data-original="#a1412b" class=""></path></g><g fill="#7f392c"><path d="M396.577 91.708a90.99 90.99 0 0 0 .074-3.81c0-4.416-.255-8.779-.766-13.056h28.081c5.842 4.256 11.684 9.747 16.972 16.866zM458.539 131.824h-70.986a108.3 108.3 0 0 0 5.757-16.866h60.206c1.948 5.13 3.64 10.727 5.023 16.866zM462.53 171.09v.851H357.78a109.803 109.803 0 0 0 16.046-16.855h88.107c.394 5.054.597 10.385.597 16.004z" fill="#7f392c" opacity="1" data-original="#7f392c"></path></g><path fill="#ffe059" d="M153.441 194.659h-93.33c-5.877 0-10.641-4.764-10.641-10.641V171.09c0-4.688.143-9.175.417-13.472.907-14.243-10.338-26.308-24.61-26.308-12.837 0-23.527 9.839-24.59 22.632A206.879 206.879 0 0 0 0 171.091v26.151c0 19.99 16.205 36.194 36.194 36.194h116.781c10.513 0 19.466-8.175 19.84-18.681.393-11.031-8.432-20.096-19.374-20.096z" opacity="1" data-original="#ffe059" class=""></path><path fill="#fff370" d="M118.369 194.659H79.501c-10.708 0-19.388 8.68-19.388 19.388 0 10.708 8.68 19.388 19.388 19.388h38.867c10.708 0 19.388-8.68 19.388-19.388.001-10.708-8.68-19.388-19.387-19.388z" opacity="1" data-original="#fff370"></path><path fill="#ffe059" d="M447.242 194.659H344.529c-10.708 0-19.388 8.68-19.388 19.388 0 10.708 8.68 19.388 19.388 19.388h102.713c10.708 0 19.388-8.68 19.388-19.388 0-10.708-8.681-19.388-19.388-19.388z" opacity="1" data-original="#ffe059" class=""></path><path fill="#fff370" d="M421.999 194.659h-21.385c-10.708 0-19.388 8.68-19.388 19.388 0 10.708 8.68 19.388 19.388 19.388h21.385c10.708 0 19.388-8.68 19.388-19.388-.001-10.708-8.681-19.388-19.388-19.388z" opacity="1" data-original="#fff370"></path></g></svg>