<svg xmlns="http://www.w3.org/2000/svg" version="1.1" xmlns:xlink="http://www.w3.org/1999/xlink" width="512" height="512" x="0" y="0" viewBox="0 0 128 128" style="enable-background:new 0 0 512 512" xml:space="preserve" class=""><g><path fill="#16254f" d="M40.98 82.76A35.676 35.676 0 0 0 98.65 64a35.058 35.058 0 0 0 .892-5.437 2.782 2.782 0 0 0-2.755-3.043H31.213a2.782 2.782 0 0 0-2.755 3.043A35.058 35.058 0 0 0 29.35 64a35.6 35.6 0 0 0 11.63 18.76z" opacity="1" data-original="#16254f" class=""></path><path fill="#f76363" d="M82.85 85.8a35.557 35.557 0 0 0 4.17-3.04 35.874 35.874 0 0 0-46.04 0 35.693 35.693 0 0 0 41.87 3.04z" opacity="1" data-original="#f76363"></path><path fill="#fffff8" d="M99.542 58.563a2.782 2.782 0 0 0-2.755-3.043H31.213a2.782 2.782 0 0 0-2.755 3.043A35.058 35.058 0 0 0 29.35 64h69.3a35.058 35.058 0 0 0 .892-5.437z" opacity="1" data-original="#fffff8" class=""></path><g fill="#16254f"><path d="M20.75 55.52a8.237 8.237 0 0 1 8.228-8.228 1.75 1.75 0 1 0 0-3.5A11.741 11.741 0 0 0 17.25 55.52a1.75 1.75 0 1 0 3.5 0zM107.25 55.52a1.75 1.75 0 1 0 3.5 0 11.741 11.741 0 0 0-11.728-11.728 1.75 1.75 0 0 0 0 3.5 8.237 8.237 0 0 1 8.228 8.228z" fill="#16254f" opacity="1" data-original="#16254f" class=""></path></g></g></svg>